<svg viewBox="0 0 787 2" fill="none" xmlns="http://www.w3.org/2000/svg">
  <path fill-rule="evenodd" clip-rule="evenodd" d="M648.622 1.09135C648.622 1.17556 648.835 1.25977 649.262 1.33346C650.328 1.52293 653.101 1.62819 656.726 1.60714C658.646 1.59661 660.565 1.58609 662.272 1.57556C671.016 1.53346 679.974 1.50188 689.145 1.52293C693.624 1.53346 698.103 1.53346 702.795 1.53346L704.365 1.53328C709.602 1.53241 714.855 1.53154 720.284 1.61767C724.194 1.68521 727.208 1.62007 729.983 1.5601L730.734 1.54398C732.867 1.4703 733.934 1.36504 734.573 1.2703C735.426 1.14398 734.573 1.00714 732.441 0.901877C730.948 0.828193 729.241 0.765035 727.322 0.733456C724.763 0.680825 722.416 0.659772 719.857 0.691351C713.459 0.765035 706.847 0.796614 700.022 0.786088C692.759 0.786088 685.698 0.796052 678.446 0.806287L677.841 0.80714C675.222 0.810634 672.604 0.821082 669.977 0.831561C664.689 0.85266 659.369 0.873886 653.954 0.838719C650.328 0.828193 648.409 0.92293 648.622 1.09135ZM613.431 0.996613C607.645 0.911716 597.96 0.900383 587.32 0.887932C583.448 0.883401 579.45 0.878722 575.467 0.870297C545.107 0.812348 514.483 0.826016 484.011 0.839616C475.737 0.843309 467.474 0.846997 459.23 0.849245C417.66 0.853754 376.013 0.864057 334.354 0.874364L334.354 0.874364C278.762 0.888118 223.15 0.901876 167.677 0.901876C152.535 0.901876 137.392 0.899245 122.249 0.896613L122.249 0.896613C107.106 0.893981 91.9632 0.89135 76.8204 0.89135C72.5026 0.89135 66.2316 0.876519 59.0996 0.859653C38.0491 0.80987 9.49819 0.742349 1.53288 0.986087C-1.6663 1.08082 0.679766 1.19661 3.66567 1.30188C6.65158 1.40714 10.4906 1.50188 16.0359 1.56503C22.8608 1.62819 31.8185 1.62819 39.9231 1.62819C162.559 1.65977 285.194 1.68082 407.83 1.68082C428.278 1.68082 448.835 1.67817 469.31 1.67553C489.623 1.67291 509.856 1.6703 529.825 1.6703C539.849 1.6703 549.66 1.6703 559.471 1.65977H561.817H562.67H564.376H567.576C569.68 1.65458 571.733 1.65195 573.76 1.64935C575.84 1.64668 577.893 1.64405 579.946 1.63872C595.729 1.60714 608.739 1.56503 615.99 1.48082C617.696 1.42819 618.549 1.36503 618.976 1.30188C619.616 1.15451 617.483 1.04924 613.431 0.996613ZM785.334 0.954478C785.547 0.97817 785.76 1.00186 785.974 1.02818C788.746 1.32292 785.334 1.48082 781.495 1.52292C779.789 1.5545 778.082 1.58608 776.163 1.57555C774.523 1.56908 772.904 1.56659 771.286 1.5641C767.642 1.55849 764.007 1.55289 760.167 1.50187C758.461 1.48082 756.968 1.43871 755.261 1.33345C753.555 1.22818 752.915 1.08082 753.982 0.943974L754.124 0.933295C754.544 0.901708 755.116 0.858648 755.688 0.849238C756.253 0.839096 756.806 0.828345 757.352 0.817717C759.074 0.784222 760.732 0.751966 762.513 0.743975C765.888 0.723151 769.356 0.711481 772.795 0.699912C774.571 0.693936 776.339 0.687987 778.082 0.680817C778.935 0.680817 780.002 0.691343 780.855 0.712396C782.348 0.743975 783.841 0.796606 784.694 0.880817C784.907 0.907124 785.12 0.930801 785.334 0.954478Z" fill="#A5A4A2"/>
</svg>
