<svg viewBox="0 0 910 2" fill="none" 
  xmlns="http://www.w3.org/2000/svg">
  <g opacity="0.5">
    <path d="M899.124 0.413723C899.124 0.413723 899.222 0.361999 899.32 0.310275C899.713 0.258551 900.106 0.206826 900.598 0.206826C900.893 0.206826 901.286 0.155102 901.58 0.206826C903.251 0.206826 904.921 0.206826 906.788 0.310275C907.182 0.310275 907.673 0.361999 908.164 0.413723C908.361 0.413723 908.459 0.465447 908.656 0.465447C909.049 0.568895 909.442 0.672344 909.736 0.827516C909.933 0.930964 909.933 1.08614 909.638 1.13786C909.245 1.18958 908.754 1.18958 908.262 1.18958C907.476 1.18958 906.69 1.18958 906.002 1.18958C904.921 1.18958 903.841 1.18958 902.76 1.18958C902.268 1.18958 901.777 1.24131 901.384 1.29303C901.187 1.29303 901.089 1.29303 900.893 1.29303C900.5 1.24131 899.91 1.13786 899.517 0.87924C899.026 0.672344 899.026 0.568895 899.124 0.413723Z" fill="#A5A4A2"/>
    <path d="M858.639 0.568965C834.565 0.258621 796.929 0.103448 756.444 0.0517241C736.202 0.0517241 715.37 0 695.127 0H691.295H684.122C675.966 0 667.908 0 659.85 0C643.833 0 627.915 0 612.389 0C581.239 0 551.072 0 522.575 0C427.062 0 331.647 0 236.036 0C193.291 0 150.448 0 107.801 0C86.576 0 65.4492 0.0517241 45.8946 0.155172C32.6289 0.258621 4.72181 0.362069 0.594709 0.517241C-0.289671 0.568965 0.00512245 0.62069 0.496444 0.62069C2.65826 0.775862 8.16107 0.931034 17.791 1.03448C42.9467 1.34483 88.1483 1.2931 123.622 1.34483C250.776 1.60345 401.71 1.44828 531.124 1.44828H629.094H678.128H700.925C721.167 1.44828 741.312 1.44828 761.652 1.39655C775.802 1.34483 790.051 1.34483 804.299 1.2931C824.149 1.24138 847.634 1.13793 858.443 0.931034C860.998 0.87931 865.125 0.827586 864.732 0.775862C864.142 0.775862 865.42 0.672414 858.639 0.568965Z" fill="#A5A4A2"/>
    <path d="M886.153 0.155206C885.76 0.155206 885.367 0.155206 884.974 0.155206L882.419 0.0517578C882.026 0.0517578 881.829 0.155206 881.633 0.362103C881.633 0.362103 881.633 0.413827 881.534 0.413827C881.338 0.620723 881.338 0.879344 881.534 1.13796C881.731 1.34486 882.026 1.50003 882.321 1.50003H882.419C883.303 1.50003 884.286 1.44831 885.268 1.50003C885.367 1.50003 885.465 1.50003 885.465 1.50003H886.742L888.609 1.44831H889.494C889.985 1.44831 890.476 1.44831 890.968 1.39659C891.754 1.39659 892.638 1.39659 893.424 1.34486C893.916 1.34486 894.505 1.13796 894.898 0.931068C894.997 0.879344 895.095 0.775896 894.997 0.672447C894.997 0.620723 894.898 0.620723 894.8 0.568999C893.326 0.155206 891.754 0.20693 890.182 0.103482C889.494 0.0517578 888.806 0.0517578 888.118 0.0517578L886.153 0.155206Z" fill="#A5A4A2"/>
  </g>
</svg>
