<svg viewBox="0 0 369 2" fill="none" 
  xmlns="http://www.w3.org/2000/svg">
  <path fill-rule="evenodd" clip-rule="evenodd" d="M304.119 0.748211C304.119 0.832422 304.219 0.916632 304.419 0.990317C304.919 1.17979 306.219 1.28505 307.919 1.264C308.819 1.25347 309.719 1.24295 310.519 1.23242C314.619 1.19032 318.819 1.15874 323.119 1.17979C325.219 1.19032 327.319 1.19032 329.519 1.19032L330.255 1.19014C332.71 1.18927 335.173 1.1884 337.719 1.27453C339.552 1.34207 340.965 1.27694 342.266 1.21696L342.619 1.20084C343.619 1.12716 344.119 1.0219 344.419 0.927159C344.819 0.800843 344.419 0.664001 343.419 0.558738C342.719 0.485053 341.919 0.421895 341.019 0.390317C339.819 0.337685 338.719 0.316632 337.519 0.348211C334.519 0.421895 331.419 0.453474 328.219 0.442948C324.813 0.442948 321.503 0.452913 318.102 0.463147L317.819 0.464001C316.591 0.467494 315.363 0.477942 314.132 0.488421C311.652 0.50952 309.158 0.530746 306.619 0.49558C304.919 0.485053 304.019 0.57979 304.119 0.748211ZM287.619 0.653473C284.906 0.568576 280.365 0.557243 275.376 0.544792C273.561 0.540261 271.686 0.535583 269.819 0.527158C255.584 0.469208 241.225 0.482876 226.938 0.496476C223.058 0.500169 219.184 0.503857 215.319 0.506105C195.828 0.510614 176.301 0.520918 156.768 0.531224C130.703 0.544978 104.628 0.558736 78.6187 0.558736C71.5187 0.558736 64.4187 0.556105 57.3187 0.553473C50.2187 0.550842 43.1187 0.54821 36.0187 0.54821C33.9942 0.54821 31.0539 0.53338 27.71 0.516513C17.84 0.46673 4.45341 0.39921 0.718721 0.642947C-0.781279 0.737684 0.318721 0.853473 1.71872 0.958736C3.11872 1.064 4.91872 1.15874 7.51872 1.22189C10.7187 1.28505 14.9187 1.28505 18.7187 1.28505C76.2187 1.31663 133.719 1.33768 191.219 1.33768C200.807 1.33768 210.445 1.33503 220.045 1.33239C229.569 1.32977 239.056 1.32716 248.419 1.32716C253.119 1.32716 257.719 1.32716 262.319 1.31663H263.419H263.819H264.619H266.119C267.106 1.31144 268.068 1.30881 269.018 1.30621C269.994 1.30354 270.956 1.30091 271.919 1.29558C279.319 1.264 285.419 1.22189 288.819 1.13768C289.619 1.08505 290.019 1.02189 290.219 0.958736C290.519 0.811368 289.519 0.706105 287.619 0.653473ZM368.219 0.611386C368.319 0.635062 368.419 0.658739 368.519 0.685045C369.819 0.979782 368.219 1.13768 366.419 1.17978C365.619 1.21136 364.819 1.24294 363.919 1.23241C363.15 1.22594 362.391 1.22345 361.632 1.22096C359.924 1.21535 358.219 1.20976 356.419 1.15873C355.619 1.13768 354.919 1.09557 354.119 0.990309C353.319 0.885045 353.019 0.737677 353.519 0.600835L353.586 0.590153C353.782 0.558566 354.051 0.515508 354.319 0.506098C354.584 0.495957 354.843 0.485204 355.099 0.474577C355.906 0.441082 356.684 0.408826 357.519 0.400835C359.101 0.380011 360.727 0.368341 362.34 0.356771C363.172 0.350796 364.001 0.344847 364.819 0.337677C365.219 0.337677 365.719 0.348203 366.119 0.369256C366.819 0.400835 367.519 0.453466 367.919 0.537677C368.019 0.564002 368.119 0.587693 368.219 0.611386Z" fill="#A5A4A2"/>
</svg>
