<svg viewBox="0 0 3 71" fill="none" 
  xmlns="http://www.w3.org/2000/svg">
  <g opacity=".5" fill="#A5A4A2">
    <path d="M1.2 56.5l.2-.1.5-.2s.2 0 .2.2l.1.8v5.3l-.1.6c-.2.7-1 .7-1.2 0A8 8 0 01.7 62v-.8-.6-2.1c.1-.7.2-1.7.5-2zM1.4 68l.6.2c.2 0 .3.5.3.8 0 .8-.3 1.6-.8 1.7-.1.1-.3 0-.4 0a.7.7 0 01-.3-.4c-.1-.5-.3-1-.1-1.5 0-.6.4-.8.7-.9zM2.1 20v-3.5V15l.1-2.6H.7L.4 25.8V32.3c0 .4.4 1 .6 1 .3.3.6.4.9 0l.1-.7.2-2.8c0-1.5 0-7.1-.2-7.2l.1-2.6z"/>
    <path d="M.5 1.9l.1 2.6V7.7l.1.9V12.5h1.5v-.9l-.2-.8V3.2l-.1-1V1l-.2.1h-.1L1.4.7H.8V1H.6v.2l-.2.1V2zM2.1 51.7l.2-.4v-.1V49L2 44.5H.7l.1 2.3A63.5 63.5 0 011 51c.2.5.7 1.2 1.1.7zM2.1 44V39.6v-.8l-.1-.3v-.1h-.1V38h-.1l-.1-.2-.1-.2H1v.1l-.2.2V44.4h1.3v-.2L2 44z"/>
  </g>
</svg>