<svg viewBox="0 0 911 2" fill="none" 
  xmlns="http://www.w3.org/2000/svg">
  <g opacity="0.5">
    <path d="M15.9235 0.885424C15.9235 0.76738 15.9235 0.649336 15.8252 0.531291C15.7269 0.236181 15.4321 0.118137 14.9408 0.118137L14.253 0.177159C13.2703 0.236181 12.1894 0.295203 11.2068 0.236181C10.7154 0.236181 10.1259 0.236181 9.63454 0.236181C8.94669 0.236181 8.25884 0.236181 7.66925 0.118137C7.17793 0.0591147 6.88314 0.177159 6.49008 0.236181C6.29355 0.354225 6.19529 0.531291 6.09702 0.649336C5.99876 0.826402 6.09702 1.00347 6.29355 1.18053C6.49008 1.23956 6.68661 1.3576 6.88314 1.41662C7.17793 1.47565 7.47272 1.53467 7.76752 1.47564C8.45537 1.3576 9.24148 1.3576 10.0276 1.3576C10.912 1.3576 11.6981 1.3576 12.5825 1.3576C13.4668 1.3576 14.3512 1.23956 15.3339 1.29858C15.7269 1.29858 15.9235 1.12151 15.9235 0.885424Z" fill="#A5A4A2"/>
    <path d="M652.087 0.118044C650.711 0.118044 649.237 0.118044 647.763 0.118044C645.012 0.118044 642.555 0.118044 640.295 0.118044C595.585 0.0590221 550.187 0 504.887 0C415.565 0.0590221 326.635 0.236088 237.018 0.118044C224.244 0.118044 157.916 0.0590221 87.6565 0.0590221C70.0672 0.0590221 52.2814 0.0590221 35.0851 0.0590221C30.7615 0.0590221 26.5361 0.0590221 22.2125 0.0590221H21.3281H21.2298H21.1315C20.935 0.0590221 20.8368 0.0590221 20.6402 0.0590221C20.0506 0.118044 19.461 0.177066 19.1663 0.29511C19.068 0.354133 19.068 0.472177 19.068 0.531199C19.068 0.649243 19.068 0.767287 18.9697 0.826309C18.9697 0.885331 19.068 1.00338 19.1663 1.00338H19.3628C19.461 1.00338 19.5593 1.00338 19.6576 1.00338C20.0506 1.0624 20.542 1.12142 20.935 1.12142H21.2298C25.5534 1.12142 29.7788 1.12142 34.1024 1.12142C44.5185 1.12142 54.9345 1.12142 65.4488 1.12142C107.309 1.12142 149.367 1.0624 191.227 1.0624C233.579 1.12142 275.538 1.12142 317.497 1.18044C353.167 1.18044 389.23 1.12142 425.096 1.12142C437.379 1.12142 449.663 1.12142 462.044 1.0624C520.806 1.18044 579.568 1.18044 638.33 1.18044C691.589 1.12142 744.554 1.00338 797.224 1.12142C799.189 1.12142 801.253 1.12142 803.709 1.12142C835.055 1.12142 868.269 1.12142 901.089 1.0624C903.153 1.0624 905.314 1.0624 907.378 1.0624H907.673C907.869 1.0624 907.968 1.0624 908.164 1.0624C908.459 1.0624 908.852 1.00338 909.147 0.944354C909.343 0.944354 909.54 0.885331 909.736 0.885331C909.835 0.885331 909.835 0.826309 909.933 0.767287C910.031 0.708265 910.031 0.649243 909.933 0.531199C909.54 0.29511 909.049 0.177066 908.361 0.177066H907.476C894.014 0.177066 880.454 0.177066 866.893 0.177066C836.726 0.177066 806.559 0.177066 775.9 0.177066C740.722 0.177066 705.641 0.236088 670.463 0.236088C664.272 0.118044 658.18 0.118044 652.087 0.118044Z" fill="#A5A4A2"/>
    <path d="M0.102925 1.00356C0.20119 1.06258 0.20119 1.1216 0.299454 1.18062C0.397718 1.29867 0.594247 1.35769 0.790776 1.41671C0.88904 1.41671 0.987305 1.47573 1.08557 1.47573C1.67516 1.47573 2.26474 1.41671 2.85433 1.35769C3.14912 1.35769 3.34565 1.29867 3.64044 1.23964C3.73871 1.23964 3.83697 1.18062 3.83697 1.1216C3.93524 0.944533 3.83697 0.708445 3.64044 0.590401C3.44391 0.413334 3.24739 0.354312 3.05086 0.29529C2.46127 0.236268 1.87168 0.236268 1.18383 0.177246C0.987305 0.177246 0.790776 0.236268 0.594247 0.29529C0.20119 0.354312 -0.191868 0.590401 0.102925 1.00356Z" fill="#A5A4A2"/>
  </g>
</svg>
