 <svg viewBox="0 0 2 221" fill="none" xmlns="http://www.w3.org/2000/svg" class="vertical" preserveAspectRatio="none">
  <g opacity="0.5">
    <path d="M0.83742 176.35C0.845895 176.45 0.879793 176.75 0.888268 177.25C0.913691 178.85 0.939115 180.55 0.956064 182.35C0.964539 183.65 0.973013 185.05 0.973013 186.45C0.964539 193.35 0.964539 200.15 0.905217 207.65C0.888268 209.45 0.862844 211.25 0.845895 213.15C0.83742 213.75 0.820471 214.45 0.803522 215.15C0.752674 216.85 0.667929 218.45 0.566234 219.75C0.498437 220.55 0.388268 220.35 0.371318 219.25C0.345895 217.55 0.328946 215.75 0.328946 213.85C0.328946 210.85 0.345895 207.65 0.345895 204.55C0.345895 200.05 0.345895 195.55 0.33742 191.15C0.328946 189.05 0.295047 187.35 0.278098 185.35C0.269624 184.75 0.261149 184.05 0.269624 183.25C0.286573 181.55 0.362844 179.25 0.532335 177.55C0.676403 176.05 0.7442 175.65 0.83742 176.35Z" fill="white"/>
    <path d="M0.727168 88.6503C0.922083 86.1503 1.0153 82.2503 1.05768 78.1503C1.0831 76.0503 1.09157 73.9503 1.09157 71.8503V71.4503V70.7503C1.09157 69.9503 1.09157 69.0503 1.09157 68.2503C1.09157 66.5503 1.09157 64.9503 1.09157 63.3503C1.09157 60.1503 1.09157 57.0503 1.09157 54.1503C1.09157 44.3503 1.09157 34.4503 1.0831 24.6503C1.07463 20.2503 1.10852 15.8503 1.07463 11.4503C1.05768 9.25027 1.03225 7.05027 0.972931 5.05027C0.947507 3.65027 0.862761 0.750269 0.752592 0.350269C0.735643 0.250269 0.710219 0.250269 0.684795 0.350269C0.5831 0.550269 0.48988 1.05027 0.413609 2.05027C0.210219 4.65027 0.244117 9.25027 0.19327 12.9503C0.0322528 26.0503 0.125473 41.5503 0.125473 54.9503V65.0503V70.0503V72.3503C0.125473 74.4503 0.133948 76.5503 0.142422 78.5503C0.159371 80.0503 0.184795 81.4503 0.201744 82.9503C0.235643 84.9503 0.320388 87.4503 0.439032 88.5503C0.464456 88.8503 0.523778 89.2503 0.557677 89.2503C0.591575 89.2503 0.676321 89.3503 0.727168 88.6503Z" fill="white"/>
    <path d="M1.01511 123.55C1.01511 121.95 1.01511 120.35 1.02358 118.85C1.03206 115.35 1.04901 111.85 1.06596 108.35C1.07443 106.95 0.989686 106.05 0.879516 105.25C0.862567 105.15 0.854093 105.05 0.837144 104.95C0.676127 104.25 0.523584 104.25 0.354093 105.05C0.20155 105.75 0.125279 106.85 0.125279 108.25C0.125279 108.45 0.125279 108.55 0.125279 108.75C0.133754 112.55 0.167652 116.25 0.10833 120.15C0.0998553 120.45 0.116804 120.75 0.116804 121.05L0.133754 126.25L0.159177 133.85L0.167652 137.65C0.176127 139.75 0.184601 141.75 0.184601 143.85C0.184601 147.15 0.184601 150.65 0.210025 153.95C0.226974 155.95 0.354093 158.45 0.481211 160.05C0.51511 160.45 0.582906 160.85 0.633754 160.55C0.659177 160.45 0.676127 160.15 0.684601 159.85C0.955788 153.65 0.921889 147.45 0.998161 141.05C1.03206 138.15 1.02358 135.35 1.02358 132.45C1.02358 129.55 1.01511 126.55 1.01511 123.55Z" fill="white"/>
  </g>
</svg>