<svg viewBox="0 0 910 2" fill="none" 
  xmlns="http://www.w3.org/2000/svg">
  <g opacity="0.5">
    <path d="M870.325 0.413723C870.325 0.413723 870.686 0.361999 871.048 0.310275C872.494 0.258551 873.94 0.206826 875.748 0.206826C876.832 0.206826 878.278 0.155102 879.363 0.206826C885.509 0.206826 891.655 0.206826 898.524 0.310275C899.97 0.310275 901.777 0.361999 903.585 0.413723C904.308 0.413723 904.67 0.465447 905.393 0.465447C906.839 0.568895 908.285 0.672344 909.369 0.827516C910.092 0.930964 910.092 1.08614 909.008 1.13786C907.562 1.18958 905.754 1.18958 903.946 1.18958C901.054 1.18958 898.162 1.18958 895.631 1.18958C891.655 1.18958 887.678 1.18958 883.701 1.18958C881.893 1.18958 880.086 1.24131 878.64 1.29303C877.917 1.29303 877.555 1.29303 876.832 1.29303C875.386 1.24131 873.217 1.13786 871.771 0.87924C869.963 0.672344 869.963 0.568895 870.325 0.413723Z" fill="#A5A4A2"/>
    <path d="M858.639 0.568965C834.565 0.258621 796.929 0.103448 756.444 0.0517241C736.202 0.0517241 715.37 0 695.127 0H691.295H684.122C675.966 0 667.908 0 659.85 0C643.833 0 627.915 0 612.389 0C581.239 0 551.072 0 522.575 0C427.062 0 331.647 0 236.036 0C193.291 0 150.448 0 107.801 0C86.576 0 65.4492 0.0517241 45.8946 0.155172C32.6289 0.258621 4.72181 0.362069 0.594709 0.517241C-0.289671 0.568965 0.00512245 0.62069 0.496444 0.62069C2.65826 0.775862 8.16107 0.931034 17.791 1.03448C42.9467 1.34483 88.1483 1.2931 123.622 1.34483C250.776 1.60345 401.71 1.44828 531.124 1.44828H629.094H678.128H700.925C721.167 1.44828 741.312 1.44828 761.652 1.39655C775.802 1.34483 790.051 1.34483 804.299 1.2931C824.149 1.24138 847.634 1.13793 858.443 0.931034C860.998 0.87931 865.125 0.827586 864.732 0.775862C864.142 0.775862 865.42 0.672414 858.639 0.568965Z" fill="#A5A4A2"/>
  </g>
</svg>
