<svg viewBox="0 0 30 29" fill="none" 
  xmlns="http://www.w3.org/2000/svg">
  <path opacity="0.5" d="M28.9613 14.6649C28.9613 22.3004 22.6987 28.4999 14.9613 28.4999C7.22391 28.4999 0.961304 22.3004 0.961304 14.6649C0.961304 7.02937 7.22391 0.829834 14.9613 0.829834C22.6987 0.829834 28.9613 7.02937 28.9613 14.6649Z" />
  <path fill-rule="evenodd" clip-rule="evenodd" d="M17.3253 14.2526H15.6683V20.1972H13.1573V14.2526H11.9633V12.1637H13.1573V10.8112C13.1317 10.477 13.1799 10.1412 13.2985 9.82722C13.4171 9.5132 13.6033 9.2284 13.8442 8.99251C14.085 8.75662 14.3749 8.57528 14.6936 8.46103C15.0124 8.34677 15.3524 8.30232 15.6903 8.33077L17.5503 8.33869V10.3673H16.2003C16.1254 10.363 16.0504 10.3751 15.9808 10.4028C15.9112 10.4305 15.8487 10.4731 15.7977 10.5276C15.7467 10.582 15.7086 10.647 15.6861 10.7177C15.6635 10.7885 15.6571 10.8633 15.6673 10.9368V12.1666H17.5483L17.3253 14.2526Z" />
</svg>
