<svg viewBox="0 0 30 29" fill="none" 
  xmlns="http://www.w3.org/2000/svg">
  <path opacity="0.5" d="M28.9613 14.6649C28.9613 22.3004 22.6987 28.4999 14.9613 28.4999C7.22391 28.4999 0.961304 22.3004 0.961304 14.6649C0.961304 7.02937 7.22391 0.829834 14.9613 0.829834C22.6987 0.829834 28.9613 7.02937 28.9613 14.6649Z" />
  <path fill-rule="evenodd" clip-rule="evenodd" d="M16.9243 8.746H12.5813C11.6214 8.746 10.7008 9.12291 10.0219 9.79385C9.34307 10.4648 8.96157 11.3748 8.9613 12.3238V16.6184C8.9613 17.0884 9.05494 17.5538 9.23686 17.988C9.41878 18.4222 9.68543 18.8167 10.0216 19.149C10.3577 19.4813 10.7568 19.7449 11.196 19.9248C11.6352 20.1046 12.1059 20.1972 12.5813 20.1972H16.9253C17.4007 20.1972 17.8714 20.1046 18.3106 19.9248C18.7498 19.7449 19.1489 19.4813 19.485 19.149C19.8212 18.8167 20.0878 18.4222 20.2697 17.988C20.4517 17.5538 20.5453 17.0884 20.5453 16.6184V12.3238C20.5452 11.8538 20.4514 11.3885 20.2694 10.9543C20.0873 10.5202 19.8206 10.1257 19.4843 9.7935C19.1481 9.46127 18.7489 9.19777 18.3097 9.01803C17.8704 8.8383 17.3997 8.74587 16.9243 8.746ZM19.4583 16.6184C19.4575 17.2826 19.1903 17.9193 18.7152 18.389C18.2402 18.8586 17.5961 19.1228 16.9243 19.1236H12.5813C11.9095 19.1228 11.2654 18.8586 10.7904 18.389C10.3153 17.9193 10.0481 17.2826 10.0473 16.6184V12.3238C10.0481 11.6597 10.3154 11.0231 10.7904 10.5536C11.2655 10.0841 11.9096 9.82017 12.5813 9.81965H16.9253C17.597 9.82017 18.2411 10.0841 18.7162 10.5536C19.1912 11.0231 19.4585 11.6597 19.4593 12.3238V16.6184H19.4583ZM14.7523 11.6081C14.1787 11.6081 13.6181 11.7762 13.1412 12.0912C12.6642 12.4063 12.2925 12.854 12.0731 13.3779C11.8536 13.9018 11.7961 14.4782 11.908 15.0344C12.0199 15.5905 12.2961 16.1014 12.7017 16.5023C13.1073 16.9033 13.624 17.1764 14.1865 17.287C14.7491 17.3976 15.3322 17.3408 15.8621 17.1238C16.392 16.9068 16.8449 16.5394 17.1636 16.0679C17.4822 15.5964 17.6523 15.0421 17.6523 14.4751C17.6523 13.7147 17.3468 12.9855 16.8029 12.4478C16.2591 11.9101 15.5214 11.6081 14.7523 11.6081ZM14.7523 16.2605C14.3943 16.2605 14.0444 16.1556 13.7467 15.959C13.4491 15.7623 13.2171 15.4829 13.0801 15.1559C12.9431 14.8289 12.9072 14.4691 12.9771 14.122C13.0469 13.7749 13.2193 13.4561 13.4724 13.2058C13.7256 12.9556 14.0481 12.7851 14.3992 12.7161C14.7503 12.647 15.1142 12.6825 15.445 12.8179C15.7757 12.9534 16.0584 13.1827 16.2573 13.477C16.4561 13.7712 16.5623 14.1172 16.5623 14.4711C16.5627 14.7065 16.5162 14.9396 16.4254 15.1571C16.3347 15.3747 16.2014 15.5724 16.0333 15.739C15.8653 15.9057 15.6656 16.0379 15.4458 16.1283C15.226 16.2186 14.9903 16.2652 14.7523 16.2655V16.2605ZM17.8653 11.0119C17.9416 11.0119 18.0163 11.0343 18.0798 11.0762C18.1432 11.1182 18.1927 11.1778 18.2219 11.2475C18.2511 11.3172 18.2588 11.394 18.2439 11.468C18.229 11.542 18.1922 11.61 18.1382 11.6634C18.0843 11.7167 18.0155 11.7531 17.9406 11.7678C17.8657 11.7825 17.7881 11.775 17.7176 11.7461C17.6471 11.7172 17.5868 11.6683 17.5444 11.6055C17.5019 11.5428 17.4793 11.469 17.4793 11.3935C17.4793 11.293 17.5194 11.1965 17.5909 11.1251C17.6625 11.0536 17.7596 11.013 17.8613 11.0119H17.8653Z" />
</svg>
