<svg viewBox="0 0 3 38" fill="none" 
  xmlns="http://www.w3.org/2000/svg" preserveAspectRatio="none">
  <path opacity="0.5" fill-rule="evenodd" clip-rule="evenodd" d="M2.33109 21.0389C2.49761 20.8072 2.51872 20.4528 2.54134 20.0731C2.54721 19.9744 2.55318 19.8741 2.56183 19.7738C2.67795 18.7734 2.64977 17.712 2.62252 16.6861C2.61531 16.4147 2.60817 16.1458 2.60379 15.8812C2.5948 14.4632 2.57425 13.0452 2.5537 11.6272C2.5263 9.73647 2.4989 7.84577 2.4989 5.95507C2.4989 4.98192 2.4989 3.91145 2.51988 2.9383C2.51988 2.78946 2.54987 2.57737 2.58378 2.33751L2.58379 2.33751C2.68291 1.63645 2.81559 0.698137 2.33109 0.408107C2.14231 0.310792 1.91157 0.408107 1.7018 0.505422C1.49204 0.602738 1.30325 0.700053 1.17739 0.894683C1.07251 1.08931 1.05154 1.38126 1.05154 1.6732C0.988608 5.76044 0.946655 9.945 0.946655 14.0322C0.946655 15.3947 0.946655 16.7571 0.967632 18.1195C0.967632 18.4114 0.967632 18.8007 0.988608 19.0926V19.1899V19.2873V19.3846C0.988608 19.4819 1.00958 19.6765 1.03056 19.7738C1.09349 20.2604 1.17739 20.747 1.34521 20.9416C1.45009 21.0389 1.57595 21.0389 1.7018 21.0389C2.01645 21.2336 2.20524 21.1362 2.33109 21.0389ZM2.12124 23.7637C1.95343 23.7637 1.78562 23.7637 1.63879 23.8611C1.26122 23.9584 1.05145 24.2503 1.09341 24.5423L1.15633 25.1262C1.24024 26.002 1.30317 26.8778 1.26122 27.7537C1.24024 28.2402 1.24024 28.6295 1.24024 29.1161C1.24024 29.1692 1.24041 29.2224 1.24059 29.2755C1.24232 29.8055 1.24403 30.3282 1.07243 30.7704C0.925596 31.1597 1.09341 31.549 1.21926 31.7436C1.35487 31.9233 1.54415 32.0201 1.72101 32.1105L1.76465 32.1329C2.01636 32.2302 2.28905 32.1329 2.49881 31.9382C2.62467 31.8409 2.75053 31.6463 2.83443 31.4516C2.93932 31.1597 2.98127 30.9651 2.91834 30.6731C2.77151 30.0892 2.70858 29.408 2.72955 28.7268C2.72955 28.0456 2.70858 27.2671 2.6876 26.5859C2.68061 26.3264 2.65963 26.0669 2.63866 25.8074C2.5967 25.2884 2.55475 24.7693 2.62467 24.2503C2.66662 23.9584 2.47784 23.7637 2.12124 23.7637ZM2.39394 37.1446C2.34675 37.1689 2.29955 37.1933 2.24711 37.1933C1.65977 37.4852 1.34512 37.0959 1.26122 36.6094C1.19829 36.5121 1.13536 36.3174 1.15634 36.1228C1.16942 35.9711 1.17434 35.8099 1.17937 35.6452C1.19048 35.2816 1.20212 34.9006 1.30317 34.5657C1.34512 34.3711 1.42903 34.2738 1.63879 34.0792C1.84856 33.9819 2.14223 33.8845 2.41492 33.9819C2.44327 34.0257 2.48013 34.0498 2.514 34.0719C2.55532 34.0989 2.59218 34.123 2.60371 34.1765C2.68761 34.3711 2.7925 34.6631 2.81347 34.8577C2.85287 35.2233 2.87583 35.5507 2.89778 35.8639C2.91089 36.0509 2.92365 36.2328 2.93933 36.4147C2.93933 36.5121 2.91835 36.6094 2.8764 36.7067C2.81347 36.9013 2.70859 36.9986 2.54078 37.0959C2.48834 37.0959 2.44114 37.1203 2.39394 37.1446Z" fill="#A5A4A2"/>
</svg>
