<svg viewBox="0 0 80 3" fill="none" 
  xmlns="http://www.w3.org/2000/svg" preserveAspectRatio="none">
  <path fill-rule="evenodd" clip-rule="evenodd" d="M48.4034 1.52299C47.0622 1.1348 44.921 0.94915 42.6622 0.864762C41.5328 0.814129 40.3563 0.797252 39.2034 0.797252H38.9916H38.5917H37.227H34.5446H29.4858C24.0976 0.797252 18.7094 0.797252 13.3447 0.814129C12.5255 0.814129 11.7116 0.808455 10.9012 0.802805C9.29081 0.791578 7.69426 0.780447 6.09772 0.814129C4.89773 0.847885 3.69774 0.898517 2.59186 1.01666L2.49849 1.0271C1.71595 1.11449 0.253127 1.27786 0.0271693 1.47235C-0.0198893 1.52299 0.00363999 1.57362 0.0271693 1.60738C0.144816 1.80991 0.474226 2.01244 1.0154 2.16433C2.04959 2.46107 3.70249 2.5042 5.29887 2.54585C5.88168 2.56106 6.45695 2.57607 6.99184 2.60315C12.2787 2.83939 18.2806 2.80084 23.991 2.76415C26.0321 2.75104 28.0358 2.73817 29.9564 2.73817H35.4858H38.2387H39.5328C40.6622 2.73817 41.8152 2.72129 42.9446 2.70442C43.3446 2.68754 43.7446 2.66644 44.1446 2.64534C44.5446 2.62425 44.9446 2.60315 45.3446 2.58627C46.4504 2.51876 47.7916 2.34999 48.4034 2.1137C48.5445 2.06307 48.7798 1.94493 48.7563 1.87742C48.7524 1.8663 48.7505 1.85243 48.7482 1.8365C48.7368 1.75569 48.7178 1.62167 48.4034 1.52299ZM69.6789 1.2996C69.6808 1.29807 69.683 1.29635 69.6854 1.29446C69.7166 1.26975 69.7833 1.21694 69.8854 1.20228C70.2618 1.15165 70.6618 1.10102 71.0854 1.06726C71.3913 1.05039 71.7207 1.03351 72.0501 1.03351C72.253 1.03562 72.4556 1.03746 72.6582 1.03931C74.0762 1.05223 75.4942 1.06515 77.0383 1.16853C77.2364 1.18432 77.4346 1.20381 77.6351 1.22353L77.6352 1.22354C77.8633 1.24597 78.0945 1.26871 78.3324 1.28667C78.4735 1.30355 78.6382 1.3373 78.8029 1.37105L78.803 1.37106C79.203 1.47232 79.5794 1.6411 79.8853 1.84363C80.0736 1.97865 80.0265 2.19806 79.7677 2.23182C79.3677 2.28245 78.9442 2.3162 78.4971 2.3162C78.1471 2.3162 77.7854 2.3079 77.4208 2.29953C77.0502 2.29103 76.6766 2.28245 76.3089 2.28245C75.2501 2.28245 74.1912 2.28245 73.156 2.29933C72.8619 2.30937 72.6012 2.33734 72.3392 2.36546C72.1608 2.3846 71.9818 2.4038 71.7913 2.41747C71.6501 2.43435 71.4854 2.45122 71.2971 2.43435C70.8971 2.40059 70.356 2.24869 69.956 1.91114C69.603 1.6411 69.5089 1.50608 69.6736 1.30355C69.6752 1.30244 69.6769 1.30112 69.6789 1.2996ZM56.1445 0.949138C56.4975 0.966016 56.8739 0.966016 57.2504 0.966016C57.6033 0.966016 57.9563 0.961796 58.3092 0.957577C58.6622 0.953357 59.0151 0.949138 59.368 0.949138C59.4823 0.949138 59.5959 0.948665 59.709 0.948194C60.271 0.945852 60.8195 0.943567 61.368 0.999771C61.7635 1.03967 62.1558 1.06443 62.5457 1.08904C63.6402 1.15812 64.7159 1.22602 65.7915 1.62424C65.8621 1.64112 65.9327 1.67487 65.9562 1.72551C66.0268 1.82677 65.9327 1.96179 65.8386 2.0293C65.4621 2.28247 64.8739 2.53563 64.4033 2.56938C63.6268 2.62002 62.8033 2.62002 62.0268 2.62002C61.5543 2.62002 61.1032 2.63546 60.6325 2.65157L60.568 2.65377L59.6739 2.67065L57.8857 2.72128L56.6622 2.75504C56.6339 2.75504 56.6057 2.76044 56.5775 2.76584C56.5351 2.77394 56.4928 2.78204 56.4504 2.77191C55.7304 2.67922 55.0394 2.70081 54.3432 2.72257C54.1521 2.72854 53.9606 2.73452 53.7681 2.73816H53.6504C53.321 2.73816 53.0622 2.58626 52.8975 2.28247C52.7093 1.94491 52.7092 1.62424 52.874 1.32044C52.8857 1.30357 52.8975 1.29091 52.9092 1.27825C52.921 1.26559 52.9328 1.25293 52.9445 1.23606C53.1328 1.01665 53.3445 0.847873 53.674 0.86475C54.4975 0.898505 55.321 0.93226 56.1445 0.949138Z" fill="#F2F1EF"/>
</svg>
